<?xml version="1.0" standalone="no"?><svg xmlns="http://www.w3.org/2000/svg" viewBox="0 0 1440 320"><path fill="#24344d" fill-opacity="1" d="M0,32L0,224L51.4,224L51.4,224L102.9,224L102.9,192L154.3,192L154.3,128L205.7,128L205.7,320L257.1,320L257.1,256L308.6,256L308.6,64L360,64L360,224L411.4,224L411.4,96L462.9,96L462.9,224L514.3,224L514.3,96L565.7,96L565.7,192L617.1,192L617.1,128L668.6,128L668.6,224L720,224L720,288L771.4,288L771.4,128L822.9,128L822.9,32L874.3,32L874.3,256L925.7,256L925.7,224L977.1,224L977.1,96L1028.6,96L1028.6,64L1080,64L1080,96L1131.4,96L1131.4,288L1182.9,288L1182.9,288L1234.3,288L1234.3,32L1285.7,32L1285.7,96L1337.1,96L1337.1,64L1388.6,64L1388.6,64L1440,64L1440,0L1388.6,0L1388.6,0L1337.1,0L1337.1,0L1285.7,0L1285.7,0L1234.3,0L1234.3,0L1182.9,0L1182.9,0L1131.4,0L1131.4,0L1080,0L1080,0L1028.6,0L1028.6,0L977.1,0L977.1,0L925.7,0L925.7,0L874.3,0L874.3,0L822.9,0L822.9,0L771.4,0L771.4,0L720,0L720,0L668.6,0L668.6,0L617.1,0L617.1,0L565.7,0L565.7,0L514.3,0L514.3,0L462.9,0L462.9,0L411.4,0L411.4,0L360,0L360,0L308.6,0L308.6,0L257.1,0L257.1,0L205.7,0L205.7,0L154.3,0L154.3,0L102.9,0L102.9,0L51.4,0L51.4,0L0,0L0,0Z"></path></svg>