<?xml version="1.0" standalone="no"?><svg xmlns="http://www.w3.org/2000/svg" viewBox="0 0 1440 320"><path fill="#24344D" fill-opacity="1" d="M0,0L24,37.3C48,75,96,149,144,186.7C192,224,240,224,288,224C336,224,384,224,432,229.3C480,235,528,245,576,240C624,235,672,213,720,208C768,203,816,213,864,224C912,235,960,245,1008,250.7C1056,256,1104,256,1152,229.3C1200,203,1248,149,1296,160C1344,171,1392,245,1416,282.7L1440,320L1440,0L1416,0C1392,0,1344,0,1296,0C1248,0,1200,0,1152,0C1104,0,1056,0,1008,0C960,0,912,0,864,0C816,0,768,0,720,0C672,0,624,0,576,0C528,0,480,0,432,0C384,0,336,0,288,0C240,0,192,0,144,0C96,0,48,0,24,0L0,0Z"></path></svg>