<?xml version="1.0" standalone="no"?><svg xmlns="http://www.w3.org/2000/svg" viewBox="0 0 1440 320"><path fill="#24344D" fill-opacity="1" d="M0,64L24,96C48,128,96,192,144,218.7C192,245,240,235,288,208C336,181,384,139,432,122.7C480,107,528,117,576,133.3C624,149,672,171,720,186.7C768,203,816,213,864,213.3C912,213,960,203,1008,170.7C1056,139,1104,85,1152,69.3C1200,53,1248,75,1296,69.3C1344,64,1392,32,1416,16L1440,0L1440,320L1416,320C1392,320,1344,320,1296,320C1248,320,1200,320,1152,320C1104,320,1056,320,1008,320C960,320,912,320,864,320C816,320,768,320,720,320C672,320,624,320,576,320C528,320,480,320,432,320C384,320,336,320,288,320C240,320,192,320,144,320C96,320,48,320,24,320L0,320Z"></path></svg>